<?xml version="1.0" encoding="UTF-8" standalone="no"?>
<!-- Created with Inkscape (http://www.inkscape.org/) -->

<svg
   xmlns:dc="http://purl.org/dc/elements/1.1/"
   xmlns:cc="http://creativecommons.org/ns#"
   xmlns:rdf="http://www.w3.org/1999/02/22-rdf-syntax-ns#"
   xmlns:svg="http://www.w3.org/2000/svg"
   xmlns="http://www.w3.org/2000/svg"
   xmlns:sodipodi="http://sodipodi.sourceforge.net/DTD/sodipodi-0.dtd"
   xmlns:inkscape="http://www.inkscape.org/namespaces/inkscape"
   version="1.1"
   id="svg1641"
   width="1709.3333"
   height="861.33331"
   viewBox="0 0 1709.3333 861.33331"
   sodipodi:docname="Checkmark.svg"
   inkscape:version="0.92.5 (2060ec1f9f, 2020-04-08)">
  <metadata
     id="metadata1647">
    <rdf:RDF>
      <cc:Work
         rdf:about="">
        <dc:format>image/svg+xml</dc:format>
        <dc:type
           rdf:resource="http://purl.org/dc/dcmitype/StillImage" />
        <dc:title />
      </cc:Work>
    </rdf:RDF>
  </metadata>
  <defs
     id="defs1645">
    <filter
       inkscape:label="Ridged Border"
       inkscape:menu="Bevels"
       inkscape:menu-tooltip="Ridged border with inner bevel"
       style="color-interpolation-filters:sRGB;"
       id="filter3100">
      <feMorphology
         radius="4.3"
         in="SourceAlpha"
         result="result91"
         id="feMorphology3086" />
      <feComposite
         operator="out"
         in="SourceGraphic"
         in2="result91"
         id="feComposite3088" />
      <feGaussianBlur
         result="result0"
         stdDeviation="1.2"
         id="feGaussianBlur3090" />
      <feDiffuseLighting
         diffuseConstant="1"
         id="feDiffuseLighting3094">
        <feDistantLight
           elevation="66"
           azimuth="225"
           id="feDistantLight3092" />
      </feDiffuseLighting>
      <feBlend
         mode="multiply"
         in2="SourceGraphic"
         id="feBlend3096" />
      <feComposite
         operator="in"
         in2="SourceAlpha"
         id="feComposite3098" />
    </filter>
  </defs>
  <sodipodi:namedview
     pagecolor="#ffffff"
     bordercolor="#666666"
     borderopacity="1"
     objecttolerance="10"
     gridtolerance="10"
     guidetolerance="10"
     inkscape:pageopacity="0"
     inkscape:pageshadow="2"
     inkscape:window-width="1848"
     inkscape:window-height="1016"
     id="namedview1643"
     showgrid="false"
     inkscape:zoom="2.8284271"
     inkscape:cx="125.69956"
     inkscape:cy="722.7671"
     inkscape:window-x="72"
     inkscape:window-y="27"
     inkscape:window-maximized="1"
     inkscape:current-layer="text839" />
  <g
     aria-label="Dino Math"
     transform="rotate(90,901.56903,591.49185)"
     style="font-style:normal;font-weight:normal;font-size:40px;line-height:1.25;font-family:sans-serif;letter-spacing:0px;word-spacing:0px;fill:#000000;fill-opacity:1;stroke:none"
     id="text839">
    <path
       style="opacity:1;fill:#ffd42b;fill-opacity:1;stroke:#550000;stroke-width:0.25201991;stroke-miterlimit:4;stroke-dasharray:0, 2.77221909;stroke-dashoffset:2.30551171"
       id="path1566"
       d="m 439.26069,1450.0995 c 5.01764,-6.041 10.34245,-11.8484 15.42357,-17.8394 4.19958,-5.9423 9.06498,-11.3013 14.81033,-15.942 4.59385,-3.7203 8.926,-7.7271 13.5322,-11.427 3.01099,-3.4342 7.36865,-5.3325 10.89546,-8.2016 4.62765,-3.5826 8.87162,-7.4249 13.79173,-10.6767 5.54177,-2.8475 10.43099,-6.3231 14.41327,-10.953 3.71265,-3.4173 7.71954,-6.6046 11.80587,-9.6252 0.7656,-0.4301 1.51947,-0.8795 2.29685,-1.2905 0.66235,-0.3501 1.3594,-0.6391 2.02037,-0.9914 0.36313,-0.1936 0.81681,-0.3165 1.04838,-0.6444 0.109,-0.1539 -0.67479,-0.1752 -0.58625,-0.011 21.0896,39.2909 36.51036,41.9815 19.30101,38.38 -6.92922,-0.4 -13.81901,-0.2834 -20.72365,-1.0672 -8.85645,-1.0509 -17.67403,-1.4481 -26.347,-3.5305 -8.57085,-2.1463 -17.31304,-3.7476 -25.71412,-6.4501 -7.69965,-3.4038 -14.97302,-7.6099 -22.49268,-11.3747 -7.7201,-3.8672 -15.46907,-7.714 -22.52549,-12.6094 -8.34446,-5.4032 -16.0313,-11.5492 -23.38006,-18.0995 -6.72913,-5.8561 -12.72313,-12.3414 -18.52904,-19.0035 -5.53425,-5.2574 -10.09659,-11.2002 -14.59701,-17.2465 -14.27584,-20.2867 -26.21048,-41.9847 -38.39121,-63.4316 -2.02119,-4.2089 -4.50691,-8.1187 -6.18541,-12.4734 -0.52485,-1.3616 -0.78638,-2.8163 -1.42351,-4.1343 -1.15952,-2.3988 -2.82585,-4.5524 -4.06634,-6.9146 -2.96167,-7.0392 -5.58371,-14.1884 -8.14501,-21.3692 -1.25565,-2.1941 -0.9182,-4.83 -1.86306,-7.098 -0.41371,-0.993 -1.25013,-1.7803 -1.78804,-2.7184 -1.73111,-3.0192 -2.8361,-6.2477 -3.88753,-9.5162 -1.25564,-4.7121 -3.33338,-9.0578 -4.32867,-13.8616 0,0 28.62677,35.472 28.62677,35.472 v 0 c 1.42474,4.5387 3.24854,8.9511 4.6003,13.5134 2.64126,6.3917 5.8676,12.5151 7.48175,19.2607 2.66103,7.0653 5.07323,14.2554 8.62185,20.9812 4.14933,7.6468 7.04334,15.8523 11.62551,23.3128 0.82856,1.4879 1.64627,2.9813 2.48568,4.4637 0.85019,1.5015 1.72207,2.9919 2.58299,4.4879 0.84996,1.477 3.45313,5.8793 2.54971,4.431 -37.9027,-60.7616 -23.96021,-38.9562 -15.78754,-25.6437 4.74783,5.7887 8.32128,12.5787 14.46506,17.2053 5.37531,6.9873 11.46162,13.3719 17.92244,19.4669 7.28035,6.4 14.28441,13.1294 22.82312,18.0946 2.1053,1.5254 3.9923,3.3292 6.2105,4.7037 4.94664,3.0648 10.48975,5.3136 15.52919,8.2631 7.69931,3.3374 14.80078,7.741 22.26033,11.441 7.65101,3.9106 16.9017,4.3925 25.1402,6.8593 2.83741,0.7263 5.60133,1.7666 8.50266,2.2125 5.65547,0.8693 11.59463,0.3305 17.24043,1.4455 6.82419,0.8867 13.59107,1.071 20.48235,0.8954 18.79238,0.079 4.09745,-0.722 27.28897,39.6146 0.23663,0.4114 -4.19711,2.2926 -4.37113,2.3813 -0.60043,0.3063 -1.17076,0.6628 -1.7561,0.9942 -3.8121,2.8978 -7.71618,5.7623 -11.10535,9.0989 -4.47462,4.6463 -9.55215,8.4483 -15.4257,11.4273 -4.76034,3.2699 -8.85432,7.183 -13.39467,10.6974 -3.61501,2.7179 -7.71808,4.843 -10.84198,8.1179 -4.55699,3.7253 -9.06521,7.5025 -13.63365,11.2153 -5.47773,4.567 -9.86191,10.0334 -14.11093,15.63 -5.19854,5.7265 -10.47222,11.4069 -14.94022,17.6825 0,0 -25.4375,-37.6056 -25.4375,-37.6056 z"
       inkscape:connector-curvature="0" />
    <path
       style="fill:none;stroke:#000000;stroke-width:1px;stroke-linecap:butt;stroke-linejoin:miter;stroke-opacity:1"
       d="m 464.69819,1487.7043 9.4623,-11.6434 7,-7.875 6.75,-8.375 6.75,-6.125 6.75,-5.625 12.75,-10.25 10.625,-7.875 6.83415,-5.5747 5.04085,-2.9253 5.875,-4.25 5,-4.5 4.25,-3.625 4.875,-3.875 4.125,-2.75 1,-1 0.125,-3.875 -1.875,-5.5 -3.75,-6.375 -8.375,-23.125 -1.75,-1.875 h -5.125 l -13.875,0.125 -12.75,-1.25 -10.5,-0.75 -5.125,-0.375 -4.875,-1 -11.125,-3.25 -10.125,-1.875 -9,-3.75 -11.375,-5.875 -11.375,-6.125 -7.875,-4 -8.875,-5.25 -6.625,-4.875 -8.625,-7 -8.875,-7.75 -10.25,-9.375 -15.25,-17.625 -4.625,-6 -4.25,-9.625 -5.625,-11.5 -3.875,-11.125 -5.125,-13.375 -2.75,-7 -2.375,-6 -2.375,-6.25 -1.28307,-4.3603 -11.09193,-14.0147 -9.5,-11.5 -8.03484,-9.9573 1.15984,4.5823 2.625,8 2,5.625 1.5,3.625 1.375,2.125 1.625,2.5 0.75,4.5 1.75,4.625 6.125,16.625 2.375,4.75 2.5,3.875 1.5,3.875 2.875,6.75 3.52773,6.6284 20.97227,36.6216 17.23127,26.4718 7.77817,10.253 7.00651,7.3317 8.37307,9.2853 12.02081,11.4905 7.95495,6.364 9.01561,7.071 9.01562,5.3033 11.66726,6.8943 13.43503,6.7175 13.08147,7.2479 4.77297,1.4142 5.3033,1.591 4.94975,0.8839 0.35355,0.7071 -15.21804,11.1787 -9.88425,8.4435 -9.54594,8.3085 -8.91234,10.617 -9.47243,10.773 -5.95114,7.0656 z"
       id="path4078"
       inkscape:connector-curvature="0" />
  </g>
</svg>
