<?xml version="1.0" encoding="UTF-8" standalone="no"?>
<!-- Created with Inkscape (http://www.inkscape.org/) -->

<svg
   xmlns:dc="http://purl.org/dc/elements/1.1/"
   xmlns:cc="http://creativecommons.org/ns#"
   xmlns:rdf="http://www.w3.org/1999/02/22-rdf-syntax-ns#"
   xmlns:svg="http://www.w3.org/2000/svg"
   xmlns="http://www.w3.org/2000/svg"
   xmlns:sodipodi="http://sodipodi.sourceforge.net/DTD/sodipodi-0.dtd"
   xmlns:inkscape="http://www.inkscape.org/namespaces/inkscape"
   version="1.1"
   id="svg1641"
   width="1709.3333"
   height="861.33331"
   viewBox="0 0 1709.3333 861.33331"
   sodipodi:docname="Navigate_Previous.svg"
   inkscape:version="0.92.5 (2060ec1f9f, 2020-04-08)">
  <metadata
     id="metadata1647">
    <rdf:RDF>
      <cc:Work
         rdf:about="">
        <dc:format>image/svg+xml</dc:format>
        <dc:type
           rdf:resource="http://purl.org/dc/dcmitype/StillImage" />
        <dc:title></dc:title>
      </cc:Work>
    </rdf:RDF>
  </metadata>
  <defs
     id="defs1645">
    <filter
       inkscape:label="Raised Border"
       inkscape:menu="Bevels"
       inkscape:menu-tooltip="Strongly raised border around a flat surface"
       height="1.5"
       width="1.5"
       y="-0.25"
       x="-0.25"
       style="color-interpolation-filters:sRGB;"
       id="filter1117">
      <feGaussianBlur
         stdDeviation="4"
         result="result1"
         id="feGaussianBlur1095" />
      <feComposite
         in="result1"
         in2="result1"
         result="result4"
         operator="in"
         id="feComposite1097" />
      <feGaussianBlur
         stdDeviation="2"
         result="result6"
         in="result4"
         id="feGaussianBlur1099" />
      <feComposite
         operator="xor"
         in="result6"
         in2="result4"
         result="result8"
         id="feComposite1101" />
      <feComposite
         operator="atop"
         result="fbSourceGraphic"
         in="result4"
         in2="result8"
         id="feComposite1103" />
      <feSpecularLighting
         specularExponent="10"
         specularConstant="1.3"
         surfaceScale="3"
         lighting-color="rgb(255,255,255)"
         result="result1"
         in="fbSourceGraphic"
         id="feSpecularLighting1107">
        <feDistantLight
           azimuth="235"
           elevation="55"
           id="feDistantLight1105" />
      </feSpecularLighting>
      <feComposite
         operator="atop"
         result="result2"
         in="result1"
         in2="fbSourceGraphic"
         id="feComposite1109" />
      <feComposite
         k3="1"
         k2="1"
         operator="arithmetic"
         result="result4"
         in="fbSourceGraphic"
         in2="result2"
         id="feComposite1111" />
      <feComposite
         operator="over"
         in="result4"
         in2="SourceGraphic"
         id="feComposite1113" />
      <feBlend
         mode="multiply"
         in2="result2"
         id="feBlend1115" />
    </filter>
  </defs>
  <sodipodi:namedview
     pagecolor="#ffffff"
     bordercolor="#666666"
     borderopacity="1"
     objecttolerance="10"
     gridtolerance="10"
     guidetolerance="10"
     inkscape:pageopacity="0"
     inkscape:pageshadow="2"
     inkscape:window-width="1848"
     inkscape:window-height="1016"
     id="namedview1643"
     showgrid="false"
     inkscape:zoom="0.38377537"
     inkscape:cx="514.39417"
     inkscape:cy="529.67629"
     inkscape:window-x="72"
     inkscape:window-y="27"
     inkscape:window-maximized="1"
     inkscape:current-layer="svg1641" />
  <rect
     style="opacity:1;fill:#ffd52b;fill-opacity:1;stroke:#550000;stroke-width:0.23055118;stroke-miterlimit:4;stroke-dasharray:0, 2.53606299;stroke-dashoffset:2.30551171;filter:url(#filter1117)"
     id="rect943"
     width="708.74792"
     height="570.6463"
     x="5.2114043"
     y="4.0610003"
     transform="matrix(1.4850032,0,0,1.4850032,301.84366,1.2908276)" />
  <path
     style="opacity:1;fill:#000000;fill-opacity:1;stroke:#550000;stroke-width:0.63081592;stroke-miterlimit:4;stroke-dasharray:0, 6.93897484;stroke-dashoffset:2.30551171"
     d="m 566.42089,486.216 c 0,-1.50486 1.23126,-3.49708 2.73614,-4.42714 1.50485,-0.93007 2.73612,-0.45975 2.73612,1.0451 0,1.50487 -1.23127,3.49709 -2.73612,4.42715 -1.50488,0.93005 -2.73614,0.45976 -2.73614,-1.04511 z"
     id="path1146"
     inkscape:connector-curvature="0" />
  <g
     id="g1166"
     transform="matrix(1.4850032,0,0,1.4850032,-425.61478,-207.65997)">
    <g
       transform="translate(-22.605691,28.6626)"
       id="g1153">
      <path
         style="opacity:1;fill:#000000;fill-opacity:1;stroke:#550000;stroke-width:0.45821986;stroke-miterlimit:4;stroke-dasharray:0, 5.04041857;stroke-dashoffset:2.30551171"
         d="m 649.10127,402.88593 2.16177,-18.62354 81.41515,-60.87436 c 44.77833,-33.4809 82.17045,-61.02052 83.09358,-61.19916 0.92312,-0.17864 8.95815,4.94318 17.85563,11.38185 l 16.1772,11.70666 -6.85268,4.86805 c -3.76897,2.67743 -44.18329,32.94684 -89.80959,67.26535 -45.62629,34.31852 -83.9247,62.27484 -85.10758,62.12515 -1.18287,-0.14968 -4.37606,-2.22523 -7.09599,-4.61234 -6.66747,-5.85161 -8.04439,-5.74175 -11.25159,0.89769 -2.18317,4.51952 -2.30353,1.8619 -0.5859,-12.93535 z"
         id="path1140"
         inkscape:connector-curvature="0" />
      <path
         style="opacity:1;fill:#000000;fill-opacity:1;stroke:#550000;stroke-width:0.48911741;stroke-miterlimit:4;stroke-dasharray:0, 5.38029126;stroke-dashoffset:2.30551171"
         d="M 763.38834,511.72266 C 697.33,465.32291 639.51932,423.18168 639.51932,421.42804 c 0,-0.84405 4.57274,-6.84901 10.16164,-13.34433 l 10.16163,-11.80966 63.11265,45.17343 c 112.60175,80.59572 122.54392,87.93665 121.0474,89.37683 -2.5458,2.44997 -28.32301,12.49254 -32.06573,12.49254 -1.96269,0 -23.80961,-14.21738 -48.54857,-31.59419 z"
         id="path1144"
         inkscape:connector-curvature="0" />
      <rect
         style="opacity:1;fill:#000000;fill-opacity:1;stroke:#550000;stroke-width:0.23055118;stroke-miterlimit:4;stroke-dasharray:0, 2.53606299;stroke-dashoffset:2.30551171"
         id="rect1148"
         width="483.92596"
         height="32.071358"
         x="659.84259"
         y="396.27405" />
    </g>
    <path
       inkscape:connector-curvature="0"
       id="path1159"
       d="m 609.22474,443.39144 -8.525,-7.6541 14.27795,-11.93007 c 7.85287,-6.56154 14.17205,-11.51562 14.04263,-11.00908 -0.12943,0.50654 -0.80048,6.59924 -1.49123,13.53933 l -1.25592,12.61836 -1.70073,2.31765 c -0.93541,1.27472 -2.85318,3.99489 -4.26172,6.04484 l -2.56099,3.72719 z"
       style="opacity:1;fill:#000000;fill-opacity:1;stroke:#550000;stroke-width:0.11229479;stroke-miterlimit:4;stroke-dasharray:0, 1.23524274;stroke-dashoffset:2.30551171" />
  </g>
</svg>
